# xmcd CD database file
#
# Track frame offsets:
#	182
#	14772
#	27677
#	44887
#	60572
#	75570
#	88485
#	100807
#	115175
#	131942
#	144507
#	161775
#	179600
#	192517
#	202922
#	215122
#	228487
#
# Disc length: 3234 seconds
#
# Revision: 1
# Processed by: cddbd v1.5.1PL0 Copyright (c) Steve Scherf et al.
# Submitted via: CDex 1.51
#
DISCID=0d0ca011
DTITLE=david allan - willie waylon and me
DYEAR=1900
DGENRE=Country
TTITLE0=willie walon and me
TTITLE1=would you lay with me in a field of stone
TTITLE2=the ten commandements of love
TTITLE3=stand by your man
TTITLE4=jack daniels if you please
TTITLE5=this bottle in my hand
TTITLE6=take it easy rider
TTITLE7=a country boy who rolled the rock away
TTITLE8=storms never last
TTITLE9=cold turkey
TTITLE10=unchained melody
TTITLE11=southern man
TTITLE12=what made you
TTITLE13=time after time
TTITLE14=he has to pay
TTITLE15=take this job and shove it too
TTITLE16=the ride
EXTD=
EXTT0=
EXTT1=
EXTT2=
EXTT3=
EXTT4=
EXTT5=
EXTT6=
EXTT7=
EXTT8=
EXTT9=
EXTT10=
EXTT11=
EXTT12=
EXTT13=
EXTT14=
EXTT15=
EXTT16=
PLAYORDER=
